{
	"asset":{
		"generator":"Khronos glTF Blender I/O v3.6.27",
		"version":"2.0"
	},
	"scene":0,
	"scenes":[
		{
			"name":"Scene",
			"nodes":[
				0
			]
		}
	],
	"nodes":[
		{
			"mesh":0,
			"name":"1.002",
			"rotation":[
				0.5,
				0.5,
				-0.5,
				0.5
			],
			"scale":[
				1.802072525024414,
				1.802072525024414,
				1.802072525024414
			]
		}
	],
	"materials":[
		{
			"alphaMode":"BLEND",
			"doubleSided":true,
			"name":"charm image.002",
			"pbrMetallicRoughness":{
				"baseColorTexture":{
					"index":0
				},
				"metallicFactor":0,
				"roughnessFactor":0.5
			}
		},
		{
			"doubleSided":true,
			"name":"golden.002",
			"pbrMetallicRoughness":{
				"baseColorFactor":[
					0.8000000715255737,
					0.35336631536483765,
					0.008671602234244347,
					1
				],
				"metallicFactor":0.8449198007583618,
				"roughnessFactor":0.5
			}
		}
	],
	"meshes":[
		{
			"name":"WhatsApp Image 2024-03-10 at 16.33.31_a0787648.089",
			"primitives":[
				{
					"attributes":{
						"POSITION":0,
						"NORMAL":1,
						"TEXCOORD_0":2
					},
					"indices":3,
					"material":0
				},
				{
					"attributes":{
						"POSITION":4,
						"NORMAL":5,
						"TEXCOORD_0":6
					},
					"indices":7,
					"material":1
				}
			]
		}
	],
	"textures":[
		{
			"sampler":0,
			"source":0
		}
	],
	"images":[
		{
			"mimeType":"image/png",
			"name":"WhatsApp Image 2024-03-10 at 16.33.31_a0787648",
			"uri":"WhatsApp%20Image%202024-03-10%20at%2016_33_31_a0787648.png"
		}
	],
	"accessors":[
		{
			"bufferView":0,
			"componentType":5126,
			"count":29,
			"max":[
				0.026112154126167297,
				0.004999999888241291,
				0.015495316125452518
			],
			"min":[
				-0.030856534838676453,
				0.004999999422580004,
				-0.015111430548131466
			],
			"type":"VEC3"
		},
		{
			"bufferView":1,
			"componentType":5126,
			"count":29,
			"type":"VEC3"
		},
		{
			"bufferView":2,
			"componentType":5126,
			"count":29,
			"type":"VEC2"
		},
		{
			"bufferView":3,
			"componentType":5123,
			"count":81,
			"type":"SCALAR"
		},
		{
			"bufferView":4,
			"componentType":5126,
			"count":145,
			"max":[
				0.026112154126167297,
				0.004999999888241291,
				0.015495316125452518
			],
			"min":[
				-0.030856534838676453,
				-0.004999999888241291,
				-0.015111430548131466
			],
			"type":"VEC3"
		},
		{
			"bufferView":5,
			"componentType":5126,
			"count":145,
			"type":"VEC3"
		},
		{
			"bufferView":6,
			"componentType":5126,
			"count":145,
			"type":"VEC2"
		},
		{
			"bufferView":7,
			"componentType":5123,
			"count":255,
			"type":"SCALAR"
		}
	],
	"bufferViews":[
		{
			"buffer":0,
			"byteLength":348,
			"byteOffset":0,
			"target":34962
		},
		{
			"buffer":0,
			"byteLength":348,
			"byteOffset":348,
			"target":34962
		},
		{
			"buffer":0,
			"byteLength":232,
			"byteOffset":696,
			"target":34962
		},
		{
			"buffer":0,
			"byteLength":162,
			"byteOffset":928,
			"target":34963
		},
		{
			"buffer":0,
			"byteLength":1740,
			"byteOffset":1092,
			"target":34962
		},
		{
			"buffer":0,
			"byteLength":1740,
			"byteOffset":2832,
			"target":34962
		},
		{
			"buffer":0,
			"byteLength":1160,
			"byteOffset":4572,
			"target":34962
		},
		{
			"buffer":0,
			"byteLength":510,
			"byteOffset":5732,
			"target":34963
		}
	],
	"samplers":[
		{
			"magFilter":9729,
			"minFilter":9987,
			"wrapS":33071,
			"wrapT":33071
		}
	],
	"buffers":[
		{
			"byteLength":6244,
			"uri":"1.bin"
		}
	]
}
