{
	"asset":{
		"generator":"Khronos glTF Blender I/O v3.6.27",
		"version":"2.0"
	},
	"scene":0,
	"scenes":[
		{
			"name":"Scene",
			"nodes":[
				0
			]
		}
	],
	"nodes":[
		{
			"mesh":0,
			"name":"2.002",
			"rotation":[
				0.5,
				0.5,
				-0.5,
				0.5
			],
			"scale":[
				1.802072525024414,
				1.802072525024414,
				1.802072525024414
			]
		}
	],
	"materials":[
		{
			"alphaMode":"BLEND",
			"doubleSided":true,
			"name":"charm image.002",
			"pbrMetallicRoughness":{
				"baseColorTexture":{
					"index":0
				},
				"metallicFactor":0,
				"roughnessFactor":0.5
			}
		},
		{
			"doubleSided":true,
			"name":"golden.002",
			"pbrMetallicRoughness":{
				"baseColorFactor":[
					0.8000000715255737,
					0.35336631536483765,
					0.008671602234244347,
					1
				],
				"metallicFactor":0.8449198007583618,
				"roughnessFactor":0.5
			}
		}
	],
	"meshes":[
		{
			"name":"WhatsApp Image 2024-03-10 at 16.33.31_a0787648.088",
			"primitives":[
				{
					"attributes":{
						"POSITION":0,
						"NORMAL":1,
						"TEXCOORD_0":2
					},
					"indices":3,
					"material":0
				},
				{
					"attributes":{
						"POSITION":4,
						"NORMAL":5,
						"TEXCOORD_0":6
					},
					"indices":7,
					"material":1
				}
			]
		}
	],
	"textures":[
		{
			"sampler":0,
			"source":0
		}
	],
	"images":[
		{
			"mimeType":"image/png",
			"name":"WhatsApp Image 2024-03-10 at 16.33.31_a0787648",
			"uri":"WhatsApp%20Image%202024-03-10%20at%2016_33_31_a0787648.png"
		}
	],
	"accessors":[
		{
			"bufferView":0,
			"componentType":5126,
			"count":34,
			"max":[
				0.02212795615196228,
				0.004999999888241291,
				0.020740538835525513
			],
			"min":[
				-0.022097468376159668,
				0.004999999888241291,
				-0.019587695598602295
			],
			"type":"VEC3"
		},
		{
			"bufferView":1,
			"componentType":5126,
			"count":34,
			"type":"VEC3"
		},
		{
			"bufferView":2,
			"componentType":5126,
			"count":34,
			"type":"VEC2"
		},
		{
			"bufferView":3,
			"componentType":5123,
			"count":96,
			"type":"SCALAR"
		},
		{
			"bufferView":4,
			"componentType":5126,
			"count":170,
			"max":[
				0.02212795615196228,
				0.004999999888241291,
				0.020740538835525513
			],
			"min":[
				-0.022097468376159668,
				-0.004999999888241291,
				-0.019587695598602295
			],
			"type":"VEC3"
		},
		{
			"bufferView":5,
			"componentType":5126,
			"count":170,
			"type":"VEC3"
		},
		{
			"bufferView":6,
			"componentType":5126,
			"count":170,
			"type":"VEC2"
		},
		{
			"bufferView":7,
			"componentType":5123,
			"count":300,
			"type":"SCALAR"
		}
	],
	"bufferViews":[
		{
			"buffer":0,
			"byteLength":408,
			"byteOffset":0,
			"target":34962
		},
		{
			"buffer":0,
			"byteLength":408,
			"byteOffset":408,
			"target":34962
		},
		{
			"buffer":0,
			"byteLength":272,
			"byteOffset":816,
			"target":34962
		},
		{
			"buffer":0,
			"byteLength":192,
			"byteOffset":1088,
			"target":34963
		},
		{
			"buffer":0,
			"byteLength":2040,
			"byteOffset":1280,
			"target":34962
		},
		{
			"buffer":0,
			"byteLength":2040,
			"byteOffset":3320,
			"target":34962
		},
		{
			"buffer":0,
			"byteLength":1360,
			"byteOffset":5360,
			"target":34962
		},
		{
			"buffer":0,
			"byteLength":600,
			"byteOffset":6720,
			"target":34963
		}
	],
	"samplers":[
		{
			"magFilter":9729,
			"minFilter":9987,
			"wrapS":33071,
			"wrapT":33071
		}
	],
	"buffers":[
		{
			"byteLength":7320,
			"uri":"2.bin"
		}
	]
}
