{
	"asset":{
		"generator":"Khronos glTF Blender I/O v3.6.27",
		"version":"2.0"
	},
	"scene":0,
	"scenes":[
		{
			"name":"Scene",
			"nodes":[
				0
			]
		}
	],
	"nodes":[
		{
			"mesh":0,
			"name":"3.002",
			"rotation":[
				0.5,
				0.5,
				-0.5,
				0.5
			],
			"scale":[
				1.802072525024414,
				1.802072525024414,
				1.802072525024414
			]
		}
	],
	"materials":[
		{
			"alphaMode":"BLEND",
			"doubleSided":true,
			"name":"charm image.002",
			"pbrMetallicRoughness":{
				"baseColorTexture":{
					"index":0
				},
				"metallicFactor":0,
				"roughnessFactor":0.5
			}
		},
		{
			"doubleSided":true,
			"name":"golden.002",
			"pbrMetallicRoughness":{
				"baseColorFactor":[
					0.8000000715255737,
					0.35336631536483765,
					0.008671602234244347,
					1
				],
				"metallicFactor":0.8449198007583618,
				"roughnessFactor":0.5
			}
		}
	],
	"meshes":[
		{
			"name":"WhatsApp Image 2024-03-10 at 16.33.31_a0787648.087",
			"primitives":[
				{
					"attributes":{
						"POSITION":0,
						"NORMAL":1,
						"TEXCOORD_0":2
					},
					"indices":3,
					"material":0
				},
				{
					"attributes":{
						"POSITION":4,
						"NORMAL":5,
						"TEXCOORD_0":6
					},
					"indices":7,
					"material":1
				}
			]
		}
	],
	"textures":[
		{
			"sampler":0,
			"source":0
		}
	],
	"images":[
		{
			"mimeType":"image/png",
			"name":"WhatsApp Image 2024-03-10 at 16.33.31_a0787648",
			"uri":"WhatsApp%20Image%202024-03-10%20at%2016_33_31_a0787648.png"
		}
	],
	"accessors":[
		{
			"bufferView":0,
			"componentType":5126,
			"count":30,
			"max":[
				0.02006995677947998,
				0.004999999888241291,
				0.02017471194267273
			],
			"min":[
				-0.01982712745666504,
				0.004999999888241291,
				-0.024484187364578247
			],
			"type":"VEC3"
		},
		{
			"bufferView":1,
			"componentType":5126,
			"count":30,
			"type":"VEC3"
		},
		{
			"bufferView":2,
			"componentType":5126,
			"count":30,
			"type":"VEC2"
		},
		{
			"bufferView":3,
			"componentType":5123,
			"count":84,
			"type":"SCALAR"
		},
		{
			"bufferView":4,
			"componentType":5126,
			"count":150,
			"max":[
				0.02006995677947998,
				0.004999999888241291,
				0.02017471194267273
			],
			"min":[
				-0.01982712745666504,
				-0.004999999888241291,
				-0.024484187364578247
			],
			"type":"VEC3"
		},
		{
			"bufferView":5,
			"componentType":5126,
			"count":150,
			"type":"VEC3"
		},
		{
			"bufferView":6,
			"componentType":5126,
			"count":150,
			"type":"VEC2"
		},
		{
			"bufferView":7,
			"componentType":5123,
			"count":264,
			"type":"SCALAR"
		}
	],
	"bufferViews":[
		{
			"buffer":0,
			"byteLength":360,
			"byteOffset":0,
			"target":34962
		},
		{
			"buffer":0,
			"byteLength":360,
			"byteOffset":360,
			"target":34962
		},
		{
			"buffer":0,
			"byteLength":240,
			"byteOffset":720,
			"target":34962
		},
		{
			"buffer":0,
			"byteLength":168,
			"byteOffset":960,
			"target":34963
		},
		{
			"buffer":0,
			"byteLength":1800,
			"byteOffset":1128,
			"target":34962
		},
		{
			"buffer":0,
			"byteLength":1800,
			"byteOffset":2928,
			"target":34962
		},
		{
			"buffer":0,
			"byteLength":1200,
			"byteOffset":4728,
			"target":34962
		},
		{
			"buffer":0,
			"byteLength":528,
			"byteOffset":5928,
			"target":34963
		}
	],
	"samplers":[
		{
			"magFilter":9729,
			"minFilter":9987,
			"wrapS":33071,
			"wrapT":33071
		}
	],
	"buffers":[
		{
			"byteLength":6456,
			"uri":"3.bin"
		}
	]
}
