{
	"asset":{
		"generator":"Khronos glTF Blender I/O v3.6.27",
		"version":"2.0"
	},
	"scene":0,
	"scenes":[
		{
			"name":"Scene",
			"nodes":[
				0
			]
		}
	],
	"nodes":[
		{
			"mesh":0,
			"name":"Cylinder",
			"scale":[
				0.800000011920929,
				0.800000011920929,
				0.800000011920929
			]
		}
	],
	"meshes":[
		{
			"name":"Cylinder",
			"primitives":[
				{
					"attributes":{
						"POSITION":0,
						"NORMAL":1,
						"TEXCOORD_0":2
					},
					"indices":3
				}
			]
		}
	],
	"accessors":[
		{
			"bufferView":0,
			"componentType":5126,
			"count":898,
			"max":[
				0.48697102069854736,
				1.3225027322769165,
				0.4869709610939026
			],
			"min":[
				-0.48697102069854736,
				-1.3209681510925293,
				-0.4869709610939026
			],
			"type":"VEC3"
		},
		{
			"bufferView":1,
			"componentType":5126,
			"count":898,
			"type":"VEC3"
		},
		{
			"bufferView":2,
			"componentType":5126,
			"count":898,
			"type":"VEC2"
		},
		{
			"bufferView":3,
			"componentType":5123,
			"count":2676,
			"type":"SCALAR"
		}
	],
	"bufferViews":[
		{
			"buffer":0,
			"byteLength":10776,
			"byteOffset":0,
			"target":34962
		},
		{
			"buffer":0,
			"byteLength":10776,
			"byteOffset":10776,
			"target":34962
		},
		{
			"buffer":0,
			"byteLength":7184,
			"byteOffset":21552,
			"target":34962
		},
		{
			"buffer":0,
			"byteLength":5352,
			"byteOffset":28736,
			"target":34963
		}
	],
	"buffers":[
		{
			"byteLength":34088,
			"uri":"data:application/octet-stream;base64,"
		}
	]
}
