{
	"asset":{
		"generator":"Khronos glTF Blender I/O v3.6.27",
		"version":"2.0"
	},
	"scene":0,
	"scenes":[
		{
			"name":"Scene",
			"nodes":[
				0
			]
		}
	],
	"nodes":[
		{
			"mesh":0,
			"name":"Torus.002",
			"rotation":[
				-0.01597738079726696,
				-0.01597738079726696,
				-0.7069262266159058,
				0.7069263458251953
			],
			"translation":[
				0.0020583951845765114,
				-0.1551693081855774,
				-0.21611595153808594
			]
		}
	],
	"meshes":[
		{
			"name":"Torus.002",
			"primitives":[
				{
					"attributes":{
						"POSITION":0,
						"NORMAL":1,
						"TEXCOORD_0":2
					},
					"indices":3
				}
			]
		}
	],
	"accessors":[
		{
			"bufferView":0,
			"componentType":5126,
			"count":2594,
			"max":[
				0.7082945108413696,
				0.7997934818267822,
				0.8703790307044983
			],
			"min":[
				-0.9982975721359253,
				-0.8002066016197205,
				-1.3433618545532227
			],
			"type":"VEC3"
		},
		{
			"bufferView":1,
			"componentType":5126,
			"count":2594,
			"type":"VEC3"
		},
		{
			"bufferView":2,
			"componentType":5126,
			"count":2594,
			"type":"VEC2"
		},
		{
			"bufferView":3,
			"componentType":5123,
			"count":10956,
			"type":"SCALAR"
		}
	],
	"bufferViews":[
		{
			"buffer":0,
			"byteLength":31128,
			"byteOffset":0,
			"target":34962
		},
		{
			"buffer":0,
			"byteLength":31128,
			"byteOffset":31128,
			"target":34962
		},
		{
			"buffer":0,
			"byteLength":20752,
			"byteOffset":62256,
			"target":34962
		},
		{
			"buffer":0,
			"byteLength":21912,
			"byteOffset":83008,
			"target":34963
		}
	],
	"buffers":[
		{
			"byteLength":104920,
			"uri":"data:application/octet-stream;base64,"
		}
	]
}
