{
	"asset":{
		"generator":"Khronos glTF Blender I/O v4.0.44",
		"version":"2.0"
	},
	"extensionsUsed":[
		"KHR_texture_transform"
	],
	"extensionsRequired":[
		"KHR_texture_transform"
	],
	"scene":2,
	"scenes":[
		{
			"name":"Scene",
			"nodes":[
				0
			]
		},
		{
			"name":"Scene.001"
		},
		{
			"name":"Scene.002",
			"nodes":[
				1
			]
		}
	],
	"nodes":[
		{
			"mesh":0,
			"name":"Cube.007",
			"translation":[
				0,
				0.19600918889045715,
				0
			]
		},
		{
			"mesh":1,
			"name":"Cube.001"
		}
	],
	"materials":[
		{
			"doubleSided":true,
			"name":"passportcover",
			"normalTexture":{
				"extensions":{
					"KHR_texture_transform":{
						"offset":[
							0,
							0.11000001430511475
						],
						"scale":[
							0.8899999856948853,
							0.8899999856948853
						]
					}
				},
				"index":0
			},
			"pbrMetallicRoughness":{
				"baseColorTexture":{
					"extensions":{
						"KHR_texture_transform":{
							"offset":[
								0,
								0.11000001430511475
							],
							"scale":[
								0.8899999856948853,
								0.8899999856948853
							]
						}
					},
					"index":1
				},
				"metallicFactor":0,
				"metallicRoughnessTexture":{
					"extensions":{
						"KHR_texture_transform":{
							"offset":[
								0,
								0.11000001430511475
							],
							"scale":[
								0.8899999856948853,
								0.8899999856948853
							]
						}
					},
					"index":2
				}
			}
		},
		{
			"doubleSided":true,
			"name":"Material.010",
			"pbrMetallicRoughness":{
				"baseColorFactor":[
					0.800000011920929,
					0.800000011920929,
					0.800000011920929,
					1
				],
				"metallicFactor":0,
				"roughnessFactor":0.5
			}
		},
		{
			"doubleSided":true,
			"name":"Material",
			"pbrMetallicRoughness":{
				"baseColorFactor":[
					0.006434009876102209,
					0.006434009876102209,
					0.006434009876102209,
					1
				],
				"metallicFactor":0,
				"roughnessFactor":0.5
			}
		},
		{
			"doubleSided":true,
			"name":"eyewear",
			"normalTexture":{
				"extensions":{
					"KHR_texture_transform":{
						"offset":[
							0,
							0.11000001430511475
						],
						"scale":[
							0.8899999856948853,
							0.8899999856948853
						]
					}
				},
				"index":3
			},
			"pbrMetallicRoughness":{
				"baseColorFactor":[
					0.0277180764824152,
					0.0277180764824152,
					0.0277180764824152,
					1
				],
				"metallicFactor":0,
				"metallicRoughnessTexture":{
					"extensions":{
						"KHR_texture_transform":{
							"offset":[
								0,
								0.11000001430511475
							],
							"scale":[
								0.8899999856948853,
								0.8899999856948853
							]
						}
					},
					"index":4
				}
			}
		},
		{
			"doubleSided":true,
			"name":"Material.001",
			"pbrMetallicRoughness":{
				"baseColorFactor":[
					0.4793491065502167,
					0.4793491065502167,
					0.4793491065502167,
					1
				],
				"metallicFactor":0,
				"roughnessFactor":0.5
			}
		},
		{
			"doubleSided":true,
			"name":"Material.009",
			"pbrMetallicRoughness":{
				"baseColorFactor":[
					0.3478143811225891,
					0.3478143811225891,
					0.3478143811225891,
					1
				],
				"roughnessFactor":0.5
			}
		}
	],
	"meshes":[
		{
			"name":"Cube.009",
			"primitives":[
				{
					"attributes":{
						"POSITION":0,
						"NORMAL":1,
						"TEXCOORD_0":2
					},
					"indices":3,
					"material":0
				},
				{
					"attributes":{
						"POSITION":4,
						"NORMAL":5,
						"TEXCOORD_0":6
					},
					"indices":7,
					"material":1
				}
			]
		},
		{
			"name":"Cube.019",
			"primitives":[
				{
					"attributes":{
						"POSITION":8,
						"NORMAL":9,
						"TEXCOORD_0":10
					},
					"indices":11,
					"material":2
				},
				{
					"attributes":{
						"POSITION":12,
						"NORMAL":13,
						"TEXCOORD_0":14
					},
					"indices":15,
					"material":3
				},
				{
					"attributes":{
						"POSITION":16,
						"NORMAL":17,
						"TEXCOORD_0":18
					},
					"indices":19,
					"material":4
				},
				{
					"attributes":{
						"POSITION":20,
						"NORMAL":21,
						"TEXCOORD_0":22
					},
					"indices":23,
					"material":5
				}
			]
		}
	],
	"textures":[
		{
			"sampler":0,
			"source":0
		},
		{
			"sampler":0,
			"source":1
		},
		{
			"sampler":0,
			"source":2
		},
		{
			"sampler":0,
			"source":0
		},
		{
			"sampler":0,
			"source":2
		}
	],
	"images":[
		{
			"mimeType":"image/jpeg",
			"name":"Leather037_2K-JPG_NormalGL",
			"uri":"Leather037_2K-JPG_NormalGL.jpg"
		},
		{
			"mimeType":"image/jpeg",
			"name":"Leather037_2K-JPG_Color",
			"uri":"Leather037_2K-JPG_Color.jpg"
		},
		{
			"mimeType":"image/png",
			"name":"Leather037_2K-JPG_Roughness",
			"uri":"Leather037_2K-JPG_Roughness.png"
		}
	],
	"accessors":[
		{
			"bufferView":0,
			"componentType":5126,
			"count":204,
			"max":[
				0.6672245264053345,
				0.05203616991639137,
				1.0324803590774536
			],
			"min":[
				-0.6672245264053345,
				-0.05203616991639137,
				-1.0324803590774536
			],
			"type":"VEC3"
		},
		{
			"bufferView":1,
			"componentType":5126,
			"count":204,
			"type":"VEC3"
		},
		{
			"bufferView":2,
			"componentType":5126,
			"count":204,
			"type":"VEC2"
		},
		{
			"bufferView":3,
			"componentType":5123,
			"count":384,
			"type":"SCALAR"
		},
		{
			"bufferView":4,
			"componentType":5126,
			"count":30,
			"max":[
				0.6611336469650269,
				0.04519882798194885,
				1.026389479637146
			],
			"min":[
				-0.6603019833564758,
				-0.04519882798194885,
				-1.026389479637146
			],
			"type":"VEC3"
		},
		{
			"bufferView":5,
			"componentType":5126,
			"count":30,
			"type":"VEC3"
		},
		{
			"bufferView":6,
			"componentType":5126,
			"count":30,
			"type":"VEC2"
		},
		{
			"bufferView":7,
			"componentType":5123,
			"count":72,
			"type":"SCALAR"
		},
		{
			"bufferView":8,
			"componentType":5126,
			"count":875,
			"max":[
				1.0472912788391113,
				0.36568740010261536,
				0.26828593015670776
			],
			"min":[
				-1.0317612886428833,
				-0.36564499139785767,
				-0.23333099484443665
			],
			"type":"VEC3"
		},
		{
			"bufferView":9,
			"componentType":5126,
			"count":875,
			"type":"VEC3"
		},
		{
			"bufferView":10,
			"componentType":5126,
			"count":875,
			"type":"VEC2"
		},
		{
			"bufferView":11,
			"componentType":5123,
			"count":4560,
			"type":"SCALAR"
		},
		{
			"bufferView":12,
			"componentType":5126,
			"count":8807,
			"max":[
				1.0855687856674194,
				0.41083309054374695,
				0.31411343812942505
			],
			"min":[
				-1.070572853088379,
				-0.41081079840660095,
				-0.2472243309020996
			],
			"type":"VEC3"
		},
		{
			"bufferView":13,
			"componentType":5126,
			"count":8807,
			"type":"VEC3"
		},
		{
			"bufferView":14,
			"componentType":5126,
			"count":8807,
			"type":"VEC2"
		},
		{
			"bufferView":15,
			"componentType":5123,
			"count":39552,
			"type":"SCALAR"
		},
		{
			"bufferView":16,
			"componentType":5126,
			"count":2670,
			"max":[
				0.9698370695114136,
				0.024933451786637306,
				0.31918489933013916
			],
			"min":[
				0.3956034779548645,
				-0.09863033890724182,
				0.29050761461257935
			],
			"type":"VEC3"
		},
		{
			"bufferView":17,
			"componentType":5126,
			"count":2670,
			"type":"VEC3"
		},
		{
			"bufferView":18,
			"componentType":5126,
			"count":2670,
			"type":"VEC2"
		},
		{
			"bufferView":19,
			"componentType":5123,
			"count":11328,
			"type":"SCALAR"
		},
		{
			"bufferView":20,
			"componentType":5126,
			"count":24747,
			"max":[
				0.9232263565063477,
				-0.01011514849960804,
				0.3275764286518097
			],
			"min":[
				-0.04755948483943939,
				-0.23311252892017365,
				0.27492597699165344
			],
			"type":"VEC3"
		},
		{
			"bufferView":21,
			"componentType":5126,
			"count":24747,
			"type":"VEC3"
		},
		{
			"bufferView":22,
			"componentType":5126,
			"count":24747,
			"type":"VEC2"
		},
		{
			"bufferView":23,
			"componentType":5123,
			"count":142848,
			"type":"SCALAR"
		}
	],
	"bufferViews":[
		{
			"buffer":0,
			"byteLength":2448,
			"byteOffset":0,
			"target":34962
		},
		{
			"buffer":0,
			"byteLength":2448,
			"byteOffset":2448,
			"target":34962
		},
		{
			"buffer":0,
			"byteLength":1632,
			"byteOffset":4896,
			"target":34962
		},
		{
			"buffer":0,
			"byteLength":768,
			"byteOffset":6528,
			"target":34963
		},
		{
			"buffer":0,
			"byteLength":360,
			"byteOffset":7296,
			"target":34962
		},
		{
			"buffer":0,
			"byteLength":360,
			"byteOffset":7656,
			"target":34962
		},
		{
			"buffer":0,
			"byteLength":240,
			"byteOffset":8016,
			"target":34962
		},
		{
			"buffer":0,
			"byteLength":144,
			"byteOffset":8256,
			"target":34963
		},
		{
			"buffer":0,
			"byteLength":10500,
			"byteOffset":8400,
			"target":34962
		},
		{
			"buffer":0,
			"byteLength":10500,
			"byteOffset":18900,
			"target":34962
		},
		{
			"buffer":0,
			"byteLength":7000,
			"byteOffset":29400,
			"target":34962
		},
		{
			"buffer":0,
			"byteLength":9120,
			"byteOffset":36400,
			"target":34963
		},
		{
			"buffer":0,
			"byteLength":105684,
			"byteOffset":45520,
			"target":34962
		},
		{
			"buffer":0,
			"byteLength":105684,
			"byteOffset":151204,
			"target":34962
		},
		{
			"buffer":0,
			"byteLength":70456,
			"byteOffset":256888,
			"target":34962
		},
		{
			"buffer":0,
			"byteLength":79104,
			"byteOffset":327344,
			"target":34963
		},
		{
			"buffer":0,
			"byteLength":32040,
			"byteOffset":406448,
			"target":34962
		},
		{
			"buffer":0,
			"byteLength":32040,
			"byteOffset":438488,
			"target":34962
		},
		{
			"buffer":0,
			"byteLength":21360,
			"byteOffset":470528,
			"target":34962
		},
		{
			"buffer":0,
			"byteLength":22656,
			"byteOffset":491888,
			"target":34963
		},
		{
			"buffer":0,
			"byteLength":296964,
			"byteOffset":514544,
			"target":34962
		},
		{
			"buffer":0,
			"byteLength":296964,
			"byteOffset":811508,
			"target":34962
		},
		{
			"buffer":0,
			"byteLength":197976,
			"byteOffset":1108472,
			"target":34962
		},
		{
			"buffer":0,
			"byteLength":285696,
			"byteOffset":1306448,
			"target":34963
		}
	],
	"samplers":[
		{
			"magFilter":9729,
			"minFilter":9987
		}
	],
	"buffers":[
		{
			"byteLength":1592144,
			"uri":"eyewear.bin"
		}
	]
}
