{
	"asset":{
		"generator":"Khronos glTF Blender I/O v4.0.44",
		"version":"2.0"
	},
	"scene":0,
	"scenes":[
		{
			"name":"Scene",
			"nodes":[
				0
			]
		},
		{
			"name":"Scene.001"
		}
	],
	"nodes":[
		{
			"mesh":0,
			"name":"Cylinder",
			"rotation":[
				0.7071068286895752,
				-0.7071068286895752,
				0,
				1.1520234011186403e-07
			],
			"scale":[
				0.5,
				0.5,
				0.5
			]
		}
	],
	"materials":[
		{
			"doubleSided":true,
			"name":"Material.004",
			"pbrMetallicRoughness":{
				"baseColorFactor":[
					0,
					0,
					0,
					1
				],
				"metallicFactor":0,
				"roughnessFactor":0.5
			}
		},
		{
			"doubleSided":true,
			"name":"Material.005",
			"pbrMetallicRoughness":{
				"baseColorFactor":[
					0.800000011920929,
					0.800000011920929,
					0.800000011920929,
					1
				],
				"metallicFactor":0,
				"roughnessFactor":0.5
			}
		},
		{
			"doubleSided":true,
			"name":"metal",
			"pbrMetallicRoughness":{
				"baseColorFactor":[
					0.800000011920929,
					0.800000011920929,
					0.800000011920929,
					1
				],
				"roughnessFactor":0.2368420958518982
			}
		}
	],
	"meshes":[
		{
			"name":"Cylinder",
			"primitives":[
				{
					"attributes":{
						"POSITION":0,
						"NORMAL":1,
						"TEXCOORD_0":2
					},
					"indices":3,
					"material":0
				},
				{
					"attributes":{
						"POSITION":4,
						"NORMAL":5,
						"TEXCOORD_0":6
					},
					"indices":7,
					"material":1
				},
				{
					"attributes":{
						"POSITION":8,
						"NORMAL":9,
						"TEXCOORD_0":10
					},
					"indices":11,
					"material":2
				}
			]
		}
	],
	"accessors":[
		{
			"bufferView":0,
			"componentType":5126,
			"count":356,
			"max":[
				0.5160056352615356,
				2.5829222202301025,
				0.5160058736801147
			],
			"min":[
				-0.5160056352615356,
				-2.662045955657959,
				-0.5160056352615356
			],
			"type":"VEC3"
		},
		{
			"bufferView":1,
			"componentType":5126,
			"count":356,
			"type":"VEC3"
		},
		{
			"bufferView":2,
			"componentType":5126,
			"count":356,
			"type":"VEC2"
		},
		{
			"bufferView":3,
			"componentType":5123,
			"count":1038,
			"type":"SCALAR"
		},
		{
			"bufferView":4,
			"componentType":5126,
			"count":64,
			"max":[
				0.46740251779556274,
				2.290787696838379,
				0.46740251779556274
			],
			"min":[
				-0.46740251779556274,
				0.7556196451187134,
				-0.46740251779556274
			],
			"type":"VEC3"
		},
		{
			"bufferView":5,
			"componentType":5126,
			"count":64,
			"type":"VEC3"
		},
		{
			"bufferView":6,
			"componentType":5126,
			"count":64,
			"type":"VEC2"
		},
		{
			"bufferView":7,
			"componentType":5123,
			"count":192,
			"type":"SCALAR"
		},
		{
			"bufferView":8,
			"componentType":5126,
			"count":5102,
			"max":[
				0.4066932201385498,
				9.886899948120117,
				1.6509085893630981
			],
			"min":[
				-0.3073127567768097,
				2.1216299533843994,
				-1.6509041786193848
			],
			"type":"VEC3"
		},
		{
			"bufferView":9,
			"componentType":5126,
			"count":5102,
			"type":"VEC3"
		},
		{
			"bufferView":10,
			"componentType":5126,
			"count":5102,
			"type":"VEC2"
		},
		{
			"bufferView":11,
			"componentType":5123,
			"count":19008,
			"type":"SCALAR"
		}
	],
	"bufferViews":[
		{
			"buffer":0,
			"byteLength":4272,
			"byteOffset":0,
			"target":34962
		},
		{
			"buffer":0,
			"byteLength":4272,
			"byteOffset":4272,
			"target":34962
		},
		{
			"buffer":0,
			"byteLength":2848,
			"byteOffset":8544,
			"target":34962
		},
		{
			"buffer":0,
			"byteLength":2076,
			"byteOffset":11392,
			"target":34963
		},
		{
			"buffer":0,
			"byteLength":768,
			"byteOffset":13468,
			"target":34962
		},
		{
			"buffer":0,
			"byteLength":768,
			"byteOffset":14236,
			"target":34962
		},
		{
			"buffer":0,
			"byteLength":512,
			"byteOffset":15004,
			"target":34962
		},
		{
			"buffer":0,
			"byteLength":384,
			"byteOffset":15516,
			"target":34963
		},
		{
			"buffer":0,
			"byteLength":61224,
			"byteOffset":15900,
			"target":34962
		},
		{
			"buffer":0,
			"byteLength":61224,
			"byteOffset":77124,
			"target":34962
		},
		{
			"buffer":0,
			"byteLength":40816,
			"byteOffset":138348,
			"target":34962
		},
		{
			"buffer":0,
			"byteLength":38016,
			"byteOffset":179164,
			"target":34963
		}
	],
	"buffers":[
		{
			"byteLength":217180,
			"uri":"keychain3.bin"
		}
	]
}
