{
	"asset":{
		"generator":"Khronos glTF Blender I/O v4.0.44",
		"version":"2.0"
	},
	"scene":0,
	"scenes":[
		{
			"name":"Scene",
			"nodes":[
				0
			]
		},
		{
			"name":"Scene.001"
		}
	],
	"nodes":[
		{
			"mesh":0,
			"name":"Cube",
			"scale":[
				0.5,
				0.5,
				0.5
			]
		}
	],
	"materials":[
		{
			"doubleSided":true,
			"name":"screw",
			"pbrMetallicRoughness":{
				"baseColorFactor":[
					0.015460430644452572,
					0.015460430644452572,
					0.015460430644452572,
					1
				],
				"metallicFactor":0.4155844449996948,
				"roughnessFactor":0.25681817531585693
			}
		},
		{
			"doubleSided":true,
			"name":"metal",
			"pbrMetallicRoughness":{
				"baseColorFactor":[
					0.800000011920929,
					0.800000011920929,
					0.800000011920929,
					1
				],
				"roughnessFactor":0.2368420958518982
			}
		}
	],
	"meshes":[
		{
			"name":"Cube.001",
			"primitives":[
				{
					"attributes":{
						"POSITION":0,
						"NORMAL":1,
						"TEXCOORD_0":2
					},
					"indices":3,
					"material":0
				},
				{
					"attributes":{
						"POSITION":4,
						"NORMAL":5,
						"TEXCOORD_0":6
					},
					"indices":7,
					"material":1
				}
			]
		}
	],
	"accessors":[
		{
			"bufferView":0,
			"componentType":5126,
			"count":219,
			"max":[
				2.1551544666290283,
				0.11957027018070221,
				1.3182916641235352
			],
			"min":[
				-2.1551544666290283,
				-0.1144677996635437,
				-1.3182916641235352
			],
			"type":"VEC3"
		},
		{
			"bufferView":1,
			"componentType":5126,
			"count":219,
			"type":"VEC3"
		},
		{
			"bufferView":2,
			"componentType":5126,
			"count":219,
			"type":"VEC2"
		},
		{
			"bufferView":3,
			"componentType":5123,
			"count":660,
			"type":"SCALAR"
		},
		{
			"bufferView":4,
			"componentType":5126,
			"count":999,
			"max":[
				-1.387516736984253,
				0.21924297511577606,
				1.6509068012237549
			],
			"min":[
				-5.688553333282471,
				-0.2034831941127777,
				-1.6509068012237549
			],
			"type":"VEC3"
		},
		{
			"bufferView":5,
			"componentType":5126,
			"count":999,
			"type":"VEC3"
		},
		{
			"bufferView":6,
			"componentType":5126,
			"count":999,
			"type":"VEC2"
		},
		{
			"bufferView":7,
			"componentType":5123,
			"count":3372,
			"type":"SCALAR"
		}
	],
	"bufferViews":[
		{
			"buffer":0,
			"byteLength":2628,
			"byteOffset":0,
			"target":34962
		},
		{
			"buffer":0,
			"byteLength":2628,
			"byteOffset":2628,
			"target":34962
		},
		{
			"buffer":0,
			"byteLength":1752,
			"byteOffset":5256,
			"target":34962
		},
		{
			"buffer":0,
			"byteLength":1320,
			"byteOffset":7008,
			"target":34963
		},
		{
			"buffer":0,
			"byteLength":11988,
			"byteOffset":8328,
			"target":34962
		},
		{
			"buffer":0,
			"byteLength":11988,
			"byteOffset":20316,
			"target":34962
		},
		{
			"buffer":0,
			"byteLength":7992,
			"byteOffset":32304,
			"target":34962
		},
		{
			"buffer":0,
			"byteLength":6744,
			"byteOffset":40296,
			"target":34963
		}
	],
	"buffers":[
		{
			"byteLength":47040,
			"uri":"keychain1.bin"
		}
	]
}
