{
	"asset":{
		"generator":"Khronos glTF Blender I/O v4.0.44",
		"version":"2.0"
	},
	"scene":0,
	"scenes":[
		{
			"name":"Scene",
			"nodes":[
				0
			]
		},
		{
			"name":"Scene.001"
		}
	],
	"nodes":[
		{
			"mesh":0,
			"name":"Cube.001",
			"scale":[
				0.5,
				0.5,
				0.4999999701976776
			]
		}
	],
	"materials":[
		{
			"doubleSided":true,
			"name":"Material",
			"pbrMetallicRoughness":{
				"baseColorFactor":[
					0.29518866539001465,
					0.04895954579114914,
					0.01676921360194683,
					1
				],
				"metallicFactor":0,
				"roughnessFactor":0.5
			}
		},
		{
			"doubleSided":true,
			"name":"metal",
			"pbrMetallicRoughness":{
				"baseColorFactor":[
					0.800000011920929,
					0.800000011920929,
					0.800000011920929,
					1
				],
				"roughnessFactor":0.2368420958518982
			}
		},
		{
			"doubleSided":true,
			"name":"Material.001",
			"pbrMetallicRoughness":{
				"baseColorFactor":[
					0.2193349450826645,
					0.2193349450826645,
					0.2193349450826645,
					1
				],
				"metallicFactor":0,
				"roughnessFactor":0.5
			}
		},
		{
			"doubleSided":true,
			"name":"Material.003",
			"pbrMetallicRoughness":{
				"baseColorFactor":[
					0.3478143811225891,
					0.3478143811225891,
					0.3478143811225891,
					1
				],
				"roughnessFactor":0.5
			}
		}
	],
	"meshes":[
		{
			"name":"Cube.002",
			"primitives":[
				{
					"attributes":{
						"POSITION":0,
						"NORMAL":1,
						"TEXCOORD_0":2
					},
					"indices":3,
					"material":0
				},
				{
					"attributes":{
						"POSITION":4,
						"NORMAL":5,
						"TEXCOORD_0":6
					},
					"indices":7,
					"material":1
				},
				{
					"attributes":{
						"POSITION":8,
						"NORMAL":9,
						"TEXCOORD_0":10
					},
					"indices":11,
					"material":2
				},
				{
					"attributes":{
						"POSITION":12,
						"NORMAL":13,
						"TEXCOORD_0":14
					},
					"indices":15,
					"material":3
				}
			]
		}
	],
	"accessors":[
		{
			"bufferView":0,
			"componentType":5126,
			"count":187,
			"max":[
				3.5551068782806396,
				0.24788691103458405,
				0.8055618405342102
			],
			"min":[
				-2.8515751361846924,
				-0.24123986065387726,
				-0.8054307103157043
			],
			"type":"VEC3"
		},
		{
			"bufferView":1,
			"componentType":5126,
			"count":187,
			"type":"VEC3"
		},
		{
			"bufferView":2,
			"componentType":5126,
			"count":187,
			"type":"VEC2"
		},
		{
			"bufferView":3,
			"componentType":5123,
			"count":528,
			"type":"SCALAR"
		},
		{
			"bufferView":4,
			"componentType":5126,
			"count":1521,
			"max":[
				3.2023873329162598,
				0.28801172971725464,
				1.3298648595809937
			],
			"min":[
				-4.638606071472168,
				-0.10692765563726425,
				-1.3297336101531982
			],
			"type":"VEC3"
		},
		{
			"bufferView":5,
			"componentType":5126,
			"count":1521,
			"type":"VEC3"
		},
		{
			"bufferView":6,
			"componentType":5126,
			"count":1521,
			"type":"VEC2"
		},
		{
			"bufferView":7,
			"componentType":5123,
			"count":7920,
			"type":"SCALAR"
		},
		{
			"bufferView":8,
			"componentType":5126,
			"count":64,
			"max":[
				2.5226192474365234,
				0.2425830066204071,
				0.41694292426109314
			],
			"min":[
				-1.38723623752594,
				0.07985720038414001,
				-0.4025154411792755
			],
			"type":"VEC3"
		},
		{
			"bufferView":9,
			"componentType":5126,
			"count":64,
			"type":"VEC3"
		},
		{
			"bufferView":10,
			"componentType":5126,
			"count":64,
			"type":"VEC2"
		},
		{
			"bufferView":11,
			"componentType":5123,
			"count":246,
			"type":"SCALAR"
		},
		{
			"bufferView":12,
			"componentType":5126,
			"count":1118,
			"max":[
				2.37194561958313,
				0.26246771216392517,
				0.16251014173030853
			],
			"min":[
				-1.2265000343322754,
				0.060282234102487564,
				-0.16467632353305817
			],
			"type":"VEC3"
		},
		{
			"bufferView":13,
			"componentType":5126,
			"count":1118,
			"type":"VEC3"
		},
		{
			"bufferView":14,
			"componentType":5126,
			"count":1118,
			"type":"VEC2"
		},
		{
			"bufferView":15,
			"componentType":5123,
			"count":5760,
			"type":"SCALAR"
		}
	],
	"bufferViews":[
		{
			"buffer":0,
			"byteLength":2244,
			"byteOffset":0,
			"target":34962
		},
		{
			"buffer":0,
			"byteLength":2244,
			"byteOffset":2244,
			"target":34962
		},
		{
			"buffer":0,
			"byteLength":1496,
			"byteOffset":4488,
			"target":34962
		},
		{
			"buffer":0,
			"byteLength":1056,
			"byteOffset":5984,
			"target":34963
		},
		{
			"buffer":0,
			"byteLength":18252,
			"byteOffset":7040,
			"target":34962
		},
		{
			"buffer":0,
			"byteLength":18252,
			"byteOffset":25292,
			"target":34962
		},
		{
			"buffer":0,
			"byteLength":12168,
			"byteOffset":43544,
			"target":34962
		},
		{
			"buffer":0,
			"byteLength":15840,
			"byteOffset":55712,
			"target":34963
		},
		{
			"buffer":0,
			"byteLength":768,
			"byteOffset":71552,
			"target":34962
		},
		{
			"buffer":0,
			"byteLength":768,
			"byteOffset":72320,
			"target":34962
		},
		{
			"buffer":0,
			"byteLength":512,
			"byteOffset":73088,
			"target":34962
		},
		{
			"buffer":0,
			"byteLength":492,
			"byteOffset":73600,
			"target":34963
		},
		{
			"buffer":0,
			"byteLength":13416,
			"byteOffset":74092,
			"target":34962
		},
		{
			"buffer":0,
			"byteLength":13416,
			"byteOffset":87508,
			"target":34962
		},
		{
			"buffer":0,
			"byteLength":8944,
			"byteOffset":100924,
			"target":34962
		},
		{
			"buffer":0,
			"byteLength":11520,
			"byteOffset":109868,
			"target":34963
		}
	],
	"buffers":[
		{
			"byteLength":121388,
			"uri":"keychain2.bin"
		}
	]
}
