{
	"asset":{
		"generator":"Khronos glTF Blender I/O v3.6.27",
		"version":"2.0"
	},
	"extensionsUsed":[
		"KHR_texture_transform"
	],
	"extensionsRequired":[
		"KHR_texture_transform"
	],
	"scene":0,
	"scenes":[
		{
			"name":"Scene",
			"nodes":[
				0
			]
		},
		{
			"name":"Scene.001",
			"nodes":[
				1
			]
		}
	],
	"nodes":[
		{
			"mesh":0,
			"name":"Cube.007",
			"translation":[
				0,
				0.19600918889045715,
				0
			]
		},
		{
			"mesh":1,
			"name":"Cube.012",
			"translation":[
				0.500451385974884,
				0.08546723425388336,
				0.4679237902164459
			]
		}
	],
	"materials":[
		{
			"doubleSided":true,
			"name":"passportcover",
			"normalTexture":{
				"extensions":{
					"KHR_texture_transform":{
						"offset":[
							0,
							0.11000001430511475
						],
						"scale":[
							0.8899999856948853,
							0.8899999856948853
						]
					}
				},
				"index":0
			},
			"pbrMetallicRoughness":{
				"baseColorFactor":[
					0.3079414665699005,
					0.09162911772727966,
					0.04008124768733978,
					1
				],
				"metallicFactor":0,
				"metallicRoughnessTexture":{
					"extensions":{
						"KHR_texture_transform":{
							"offset":[
								0,
								0.11000001430511475
							],
							"scale":[
								0.8899999856948853,
								0.8899999856948853
							]
						}
					},
					"index":1
				}
			}
		},
		{
			"doubleSided":true,
			"name":"Material.010",
			"pbrMetallicRoughness":{
				"baseColorFactor":[
					0.800000011920929,
					0.800000011920929,
					0.800000011920929,
					1
				],
				"metallicFactor":0,
				"roughnessFactor":0.5
			}
		},
		{
			"doubleSided":true,
			"name":"Material.002",
			"pbrMetallicRoughness":{
				"baseColorFactor":[
					0.3478143811225891,
					0.3478143811225891,
					0.3478143811225891,
					1
				],
				"roughnessFactor":0.5
			}
		},
		{
			"doubleSided":true,
			"name":"badge",
			"pbrMetallicRoughness":{
				"baseColorFactor":[
					0.7540243268013,
					0.5159144401550293,
					0.8000000715255737,
					1
				],
				"roughnessFactor":0.2818181812763214
			}
		},
		{
			"doubleSided":true,
			"name":"screw",
			"pbrMetallicRoughness":{
				"baseColorFactor":[
					0.3478143811225891,
					0.3478143811225891,
					0.3478143811225891,
					1
				],
				"roughnessFactor":0.25681817531585693
			}
		},
		{
			"doubleSided":true,
			"name":"pusrecolor",
			"pbrMetallicRoughness":{
				"baseColorFactor":[
					0.800000011920929,
					0.800000011920929,
					0.800000011920929,
					1
				],
				"metallicFactor":0,
				"roughnessFactor":0.5
			}
		}
	],
	"meshes":[
		{
			"name":"Cube.009",
			"primitives":[
				{
					"attributes":{
						"POSITION":0,
						"NORMAL":1,
						"TEXCOORD_0":2
					},
					"indices":3,
					"material":0
				},
				{
					"attributes":{
						"POSITION":4,
						"NORMAL":5,
						"TEXCOORD_0":6
					},
					"indices":7,
					"material":1
				},
				{
					"attributes":{
						"POSITION":8,
						"NORMAL":9,
						"TEXCOORD_0":10
					},
					"indices":11,
					"material":2
				}
			]
		},
		{
			"name":"Cube.001",
			"primitives":[
				{
					"attributes":{
						"POSITION":12,
						"NORMAL":13,
						"TEXCOORD_0":14
					},
					"indices":15,
					"material":3
				},
				{
					"attributes":{
						"POSITION":16,
						"NORMAL":17,
						"TEXCOORD_0":18
					},
					"indices":19,
					"material":4
				},
				{
					"attributes":{
						"POSITION":20,
						"NORMAL":21,
						"TEXCOORD_0":22
					},
					"indices":23,
					"material":5
				}
			]
		}
	],
	"textures":[
		{
			"sampler":0,
			"source":0
		},
		{
			"sampler":0,
			"source":1
		}
	],
	"images":[
		{
			"mimeType":"image/jpeg",
			"name":"Leather037_2K-JPG_NormalGL",
			"uri":"Leather037_2K-JPG_NormalGL.jpg"
		},
		{
			"mimeType":"image/png",
			"name":"Leather037_2K-JPG_Roughness",
			"uri":"Leather037_2K-JPG_Roughness.png"
		}
	],
	"accessors":[
		{
			"bufferView":0,
			"componentType":5126,
			"count":204,
			"max":[
				0.6672245264053345,
				0.05203616991639137,
				1.0324803590774536
			],
			"min":[
				-0.6672245264053345,
				-0.05203616991639137,
				-1.0324803590774536
			],
			"type":"VEC3"
		},
		{
			"bufferView":1,
			"componentType":5126,
			"count":204,
			"type":"VEC3"
		},
		{
			"bufferView":2,
			"componentType":5126,
			"count":204,
			"type":"VEC2"
		},
		{
			"bufferView":3,
			"componentType":5123,
			"count":384,
			"type":"SCALAR"
		},
		{
			"bufferView":4,
			"componentType":5126,
			"count":254,
			"max":[
				0.6611336469650269,
				0.07032287120819092,
				1.026389479637146
			],
			"min":[
				-0.6603019833564758,
				-0.04519882798194885,
				-1.026389479637146
			],
			"type":"VEC3"
		},
		{
			"bufferView":5,
			"componentType":5126,
			"count":254,
			"type":"VEC3"
		},
		{
			"bufferView":6,
			"componentType":5126,
			"count":254,
			"type":"VEC2"
		},
		{
			"bufferView":7,
			"componentType":5123,
			"count":828,
			"type":"SCALAR"
		},
		{
			"bufferView":8,
			"componentType":5126,
			"count":1118,
			"max":[
				0.39298713207244873,
				0.07514249533414841,
				0.5001103281974792
			],
			"min":[
				-0.3532821238040924,
				0.051454368978738785,
				0.43229806423187256
			],
			"type":"VEC3"
		},
		{
			"bufferView":9,
			"componentType":5126,
			"count":1118,
			"type":"VEC3"
		},
		{
			"bufferView":10,
			"componentType":5126,
			"count":1118,
			"type":"VEC2"
		},
		{
			"bufferView":11,
			"componentType":5123,
			"count":5760,
			"type":"SCALAR"
		},
		{
			"bufferView":12,
			"componentType":5126,
			"count":224,
			"max":[
				0.40437039732933044,
				0.016217660158872604,
				0.08491996675729752
			],
			"min":[
				-0.40437039732933044,
				-0.054210465401411057,
				-0.08491996675729752
			],
			"type":"VEC3"
		},
		{
			"bufferView":13,
			"componentType":5126,
			"count":224,
			"type":"VEC3"
		},
		{
			"bufferView":14,
			"componentType":5126,
			"count":224,
			"type":"VEC2"
		},
		{
			"bufferView":15,
			"componentType":5123,
			"count":756,
			"type":"SCALAR"
		},
		{
			"bufferView":16,
			"componentType":5126,
			"count":1184,
			"max":[
				0.37322646379470825,
				0.01899869740009308,
				0.032186515629291534
			],
			"min":[
				-0.37106186151504517,
				-0.04842221736907959,
				-0.035625725984573364
			],
			"type":"VEC3"
		},
		{
			"bufferView":17,
			"componentType":5126,
			"count":1184,
			"type":"VEC3"
		},
		{
			"bufferView":18,
			"componentType":5126,
			"count":1184,
			"type":"VEC2"
		},
		{
			"bufferView":19,
			"componentType":5123,
			"count":5760,
			"type":"SCALAR"
		},
		{
			"bufferView":20,
			"componentType":5126,
			"count":1253,
			"max":[
				0.4995485544204712,
				0.03343892842531204,
				0.25999459624290466
			],
			"min":[
				-1.5015687942504883,
				-0.20437341928482056,
				-1.1958421468734741
			],
			"type":"VEC3"
		},
		{
			"bufferView":21,
			"componentType":5126,
			"count":1253,
			"type":"VEC3"
		},
		{
			"bufferView":22,
			"componentType":5126,
			"count":1253,
			"type":"VEC2"
		},
		{
			"bufferView":23,
			"componentType":5123,
			"count":5724,
			"type":"SCALAR"
		}
	],
	"bufferViews":[
		{
			"buffer":0,
			"byteLength":2448,
			"byteOffset":0,
			"target":34962
		},
		{
			"buffer":0,
			"byteLength":2448,
			"byteOffset":2448,
			"target":34962
		},
		{
			"buffer":0,
			"byteLength":1632,
			"byteOffset":4896,
			"target":34962
		},
		{
			"buffer":0,
			"byteLength":768,
			"byteOffset":6528,
			"target":34963
		},
		{
			"buffer":0,
			"byteLength":3048,
			"byteOffset":7296,
			"target":34962
		},
		{
			"buffer":0,
			"byteLength":3048,
			"byteOffset":10344,
			"target":34962
		},
		{
			"buffer":0,
			"byteLength":2032,
			"byteOffset":13392,
			"target":34962
		},
		{
			"buffer":0,
			"byteLength":1656,
			"byteOffset":15424,
			"target":34963
		},
		{
			"buffer":0,
			"byteLength":13416,
			"byteOffset":17080,
			"target":34962
		},
		{
			"buffer":0,
			"byteLength":13416,
			"byteOffset":30496,
			"target":34962
		},
		{
			"buffer":0,
			"byteLength":8944,
			"byteOffset":43912,
			"target":34962
		},
		{
			"buffer":0,
			"byteLength":11520,
			"byteOffset":52856,
			"target":34963
		},
		{
			"buffer":0,
			"byteLength":2688,
			"byteOffset":64376,
			"target":34962
		},
		{
			"buffer":0,
			"byteLength":2688,
			"byteOffset":67064,
			"target":34962
		},
		{
			"buffer":0,
			"byteLength":1792,
			"byteOffset":69752,
			"target":34962
		},
		{
			"buffer":0,
			"byteLength":1512,
			"byteOffset":71544,
			"target":34963
		},
		{
			"buffer":0,
			"byteLength":14208,
			"byteOffset":73056,
			"target":34962
		},
		{
			"buffer":0,
			"byteLength":14208,
			"byteOffset":87264,
			"target":34962
		},
		{
			"buffer":0,
			"byteLength":9472,
			"byteOffset":101472,
			"target":34962
		},
		{
			"buffer":0,
			"byteLength":11520,
			"byteOffset":110944,
			"target":34963
		},
		{
			"buffer":0,
			"byteLength":15036,
			"byteOffset":122464,
			"target":34962
		},
		{
			"buffer":0,
			"byteLength":15036,
			"byteOffset":137500,
			"target":34962
		},
		{
			"buffer":0,
			"byteLength":10024,
			"byteOffset":152536,
			"target":34962
		},
		{
			"buffer":0,
			"byteLength":11448,
			"byteOffset":162560,
			"target":34963
		}
	],
	"samplers":[
		{
			"magFilter":9729,
			"minFilter":9987
		}
	],
	"buffers":[
		{
			"byteLength":174008,
			"uri":"passportcover.bin"
		}
	]
}
