{
	"asset":{
		"generator":"Khronos glTF Blender I/O v3.6.27",
		"version":"2.0"
	},
	"scene":1,
	"scenes":[
		{
			"name":"Scene"
		},
		{
			"name":"Scene.001",
			"nodes":[
				0
			]
		}
	],
	"nodes":[
		{
			"mesh":0,
			"name":"Cylinder",
			"scale":[
				0.20000000298023224,
				0.20000000298023224,
				0.20000000298023224
			]
		}
	],
	"materials":[
		{
			"doubleSided":true,
			"name":"Material",
			"pbrMetallicRoughness":{
				"baseColorFactor":[
					0,
					0,
					0,
					1
				],
				"roughnessFactor":0.30392158031463623
			}
		},
		{
			"doubleSided":true,
			"name":"Material.001",
			"pbrMetallicRoughness":{
				"baseColorFactor":[
					0.5542150735855103,
					0.5542150735855103,
					0.5542150735855103,
					1
				],
				"metallicFactor":0.6535947918891907,
				"roughnessFactor":0.31699347496032715
			}
		},
		{
			"doubleSided":true,
			"name":"Material.004",
			"pbrMetallicRoughness":{
				"baseColorFactor":[
					0.800000011920929,
					0.800000011920929,
					0.800000011920929,
					1
				],
				"metallicFactor":0,
				"roughnessFactor":0.5
			}
		}
	],
	"meshes":[
		{
			"name":"Cylinder",
			"primitives":[
				{
					"attributes":{
						"POSITION":0,
						"NORMAL":1,
						"TEXCOORD_0":2
					},
					"indices":3,
					"material":0
				},
				{
					"attributes":{
						"POSITION":4,
						"NORMAL":5,
						"TEXCOORD_0":6
					},
					"indices":7,
					"material":1
				},
				{
					"attributes":{
						"POSITION":8,
						"NORMAL":9,
						"TEXCOORD_0":10
					},
					"indices":11,
					"material":2
				}
			]
		}
	],
	"accessors":[
		{
			"bufferView":0,
			"componentType":5126,
			"count":1047,
			"max":[
				0.3719797730445862,
				4.562731742858887,
				0.4002184271812439
			],
			"min":[
				-0.4283836781978607,
				-5.186552047729492,
				-0.400145024061203
			],
			"type":"VEC3"
		},
		{
			"bufferView":1,
			"componentType":5126,
			"count":1047,
			"type":"VEC3"
		},
		{
			"bufferView":2,
			"componentType":5126,
			"count":1047,
			"type":"VEC2"
		},
		{
			"bufferView":3,
			"componentType":5123,
			"count":3828,
			"type":"SCALAR"
		},
		{
			"bufferView":4,
			"componentType":5126,
			"count":2376,
			"max":[
				0.5789586901664734,
				4.124413967132568,
				0.4002683758735657
			],
			"min":[
				-0.4284336268901825,
				-5.055635929107666,
				-0.4001949727535248
			],
			"type":"VEC3"
		},
		{
			"bufferView":5,
			"componentType":5126,
			"count":2376,
			"type":"VEC3"
		},
		{
			"bufferView":6,
			"componentType":5126,
			"count":2376,
			"type":"VEC2"
		},
		{
			"bufferView":7,
			"componentType":5123,
			"count":4596,
			"type":"SCALAR"
		},
		{
			"bufferView":8,
			"componentType":5126,
			"count":191,
			"max":[
				0.3719797730445862,
				3.9860284328460693,
				0.4002184271812439
			],
			"min":[
				-0.4283836781978607,
				-0.41932788491249084,
				-0.400145024061203
			],
			"type":"VEC3"
		},
		{
			"bufferView":9,
			"componentType":5126,
			"count":191,
			"type":"VEC3"
		},
		{
			"bufferView":10,
			"componentType":5126,
			"count":191,
			"type":"VEC2"
		},
		{
			"bufferView":11,
			"componentType":5123,
			"count":768,
			"type":"SCALAR"
		}
	],
	"bufferViews":[
		{
			"buffer":0,
			"byteLength":12564,
			"byteOffset":0,
			"target":34962
		},
		{
			"buffer":0,
			"byteLength":12564,
			"byteOffset":12564,
			"target":34962
		},
		{
			"buffer":0,
			"byteLength":8376,
			"byteOffset":25128,
			"target":34962
		},
		{
			"buffer":0,
			"byteLength":7656,
			"byteOffset":33504,
			"target":34963
		},
		{
			"buffer":0,
			"byteLength":28512,
			"byteOffset":41160,
			"target":34962
		},
		{
			"buffer":0,
			"byteLength":28512,
			"byteOffset":69672,
			"target":34962
		},
		{
			"buffer":0,
			"byteLength":19008,
			"byteOffset":98184,
			"target":34962
		},
		{
			"buffer":0,
			"byteLength":9192,
			"byteOffset":117192,
			"target":34963
		},
		{
			"buffer":0,
			"byteLength":2292,
			"byteOffset":126384,
			"target":34962
		},
		{
			"buffer":0,
			"byteLength":2292,
			"byteOffset":128676,
			"target":34962
		},
		{
			"buffer":0,
			"byteLength":1528,
			"byteOffset":130968,
			"target":34962
		},
		{
			"buffer":0,
			"byteLength":1536,
			"byteOffset":132496,
			"target":34963
		}
	],
	"buffers":[
		{
			"byteLength":134032,
			"uri":"pen1.bin"
		}
	]
}
