{
	"asset":{
		"generator":"Khronos glTF Blender I/O v4.0.44",
		"version":"2.0"
	},
	"extensionsUsed":[
		"KHR_texture_transform"
	],
	"extensionsRequired":[
		"KHR_texture_transform"
	],
	"scene":0,
	"scenes":[
		{
			"name":"Scene",
			"nodes":[
				0
			]
		}
	],
	"nodes":[
		{
			"mesh":0,
			"name":"Cube.009",
			"scale":[
				2.3831403255462646,
				2.3831403255462646,
				2.3831403255462646
			],
			"translation":[
				0,
				0.044488660991191864,
				0
			]
		}
	],
	"materials":[
		{
			"doubleSided":true,
			"name":"pusre",
			"normalTexture":{
				"extensions":{
					"KHR_texture_transform":{
						"offset":[
							0,
							-26.89999771118164
						],
						"scale":[
							27.89999771118164,
							27.89999771118164
						]
					}
				},
				"index":0,
				"scale":0.5299999713897705
			},
			"pbrMetallicRoughness":{
				"baseColorFactor":[
					0.011145016178488731,
					0.7999997735023499,
					0.02236603945493698,
					1
				],
				"metallicFactor":0.459090918302536,
				"metallicRoughnessTexture":{
					"extensions":{
						"KHR_texture_transform":{
							"offset":[
								0,
								-26.89999771118164
							],
							"scale":[
								27.89999771118164,
								27.89999771118164
							]
						}
					},
					"index":1
				}
			}
		},
		{
			"doubleSided":true,
			"name":"Material.012",
			"pbrMetallicRoughness":{
				"baseColorFactor":[
					0.4896458387374878,
					0.4896458387374878,
					0.4896458387374878,
					1
				],
				"roughnessFactor":0.22477063536643982
			}
		}
	],
	"meshes":[
		{
			"name":"Cube",
			"primitives":[
				{
					"attributes":{
						"POSITION":0,
						"NORMAL":1,
						"TEXCOORD_0":2
					},
					"indices":3,
					"material":0
				},
				{
					"attributes":{
						"POSITION":4,
						"NORMAL":5,
						"TEXCOORD_0":6
					},
					"indices":7,
					"material":1
				}
			]
		}
	],
	"textures":[
		{
			"sampler":0,
			"source":0
		},
		{
			"sampler":0,
			"source":1
		}
	],
	"images":[
		{
			"mimeType":"image/jpeg",
			"name":"Leather035D_2K-JPG_NormalGL",
			"uri":"Leather035D_2K-JPG_NormalGL.jpg"
		},
		{
			"mimeType":"image/png",
			"name":"Leather035D_2K-JPG_Color",
			"uri":"Leather035D_2K-JPG_Color.png"
		}
	],
	"accessors":[
		{
			"bufferView":0,
			"componentType":5126,
			"count":279,
			"max":[
				0.46968874335289,
				0.027370596304535866,
				0.30807438492774963
			],
			"min":[
				-0.46631357073783875,
				-0.02051514945924282,
				-0.30807438492774963
			],
			"type":"VEC3"
		},
		{
			"bufferView":1,
			"componentType":5126,
			"count":279,
			"type":"VEC3"
		},
		{
			"bufferView":2,
			"componentType":5126,
			"count":279,
			"type":"VEC2"
		},
		{
			"bufferView":3,
			"componentType":5123,
			"count":930,
			"type":"SCALAR"
		},
		{
			"bufferView":4,
			"componentType":5126,
			"count":118,
			"max":[
				0.2258354276418686,
				0.028965838253498077,
				0.1684110015630722
			],
			"min":[
				-0.22531014680862427,
				0.020209692418575287,
				0.006556803360581398
			],
			"type":"VEC3"
		},
		{
			"bufferView":5,
			"componentType":5126,
			"count":118,
			"type":"VEC3"
		},
		{
			"bufferView":6,
			"componentType":5126,
			"count":118,
			"type":"VEC2"
		},
		{
			"bufferView":7,
			"componentType":5123,
			"count":264,
			"type":"SCALAR"
		}
	],
	"bufferViews":[
		{
			"buffer":0,
			"byteLength":3348,
			"byteOffset":0,
			"target":34962
		},
		{
			"buffer":0,
			"byteLength":3348,
			"byteOffset":3348,
			"target":34962
		},
		{
			"buffer":0,
			"byteLength":2232,
			"byteOffset":6696,
			"target":34962
		},
		{
			"buffer":0,
			"byteLength":1860,
			"byteOffset":8928,
			"target":34963
		},
		{
			"buffer":0,
			"byteLength":1416,
			"byteOffset":10788,
			"target":34962
		},
		{
			"buffer":0,
			"byteLength":1416,
			"byteOffset":12204,
			"target":34962
		},
		{
			"buffer":0,
			"byteLength":944,
			"byteOffset":13620,
			"target":34962
		},
		{
			"buffer":0,
			"byteLength":528,
			"byteOffset":14564,
			"target":34963
		}
	],
	"samplers":[
		{
			"magFilter":9729,
			"minFilter":9987
		}
	],
	"buffers":[
		{
			"byteLength":15092,
			"uri":"purse.bin"
		}
	]
}
