{
	"asset":{
		"generator":"Khronos glTF Blender I/O v4.0.44",
		"version":"2.0"
	},
	"scene":0,
	"scenes":[
		{
			"name":"Scene",
			"nodes":[
				0
			]
		}
	],
	"nodes":[
		{
			"mesh":0,
			"name":"Cube.002",
			"scale":[
				4,
				4,
				4
			]
		}
	],
	"materials":[
		{
			"doubleSided":true,
			"name":"golden",
			"pbrMetallicRoughness":{
				"baseColorFactor":[
					0.7999992966651917,
					0.41419264674186707,
					0.016747359186410904,
					1
				],
				"metallicFactor":0.6578947305679321,
				"roughnessFactor":0.10526314377784729
			}
		}
	],
	"meshes":[
		{
			"name":"Cube.002",
			"primitives":[
				{
					"attributes":{
						"POSITION":0,
						"NORMAL":1,
						"TEXCOORD_0":2
					},
					"indices":3,
					"material":0
				}
			]
		}
	],
	"accessors":[
		{
			"bufferView":0,
			"componentType":5126,
			"count":5885,
			"max":[
				0.14106698334217072,
				0.3504076600074768,
				0.10358517616987228
			],
			"min":[
				-0.14173424243927002,
				-0.26921361684799194,
				-0.10374139249324799
			],
			"type":"VEC3"
		},
		{
			"bufferView":1,
			"componentType":5126,
			"count":5885,
			"type":"VEC3"
		},
		{
			"bufferView":2,
			"componentType":5126,
			"count":5885,
			"type":"VEC2"
		},
		{
			"bufferView":3,
			"componentType":5123,
			"count":25380,
			"type":"SCALAR"
		}
	],
	"bufferViews":[
		{
			"buffer":0,
			"byteLength":70620,
			"byteOffset":0,
			"target":34962
		},
		{
			"buffer":0,
			"byteLength":70620,
			"byteOffset":70620,
			"target":34962
		},
		{
			"buffer":0,
			"byteLength":47080,
			"byteOffset":141240,
			"target":34962
		},
		{
			"buffer":0,
			"byteLength":50760,
			"byteOffset":188320,
			"target":34963
		}
	],
	"buffers":[
		{
			"byteLength":239080,
			"uri":"rose.bin"
		}
	]
}
