{
	"asset":{
		"generator":"Khronos glTF Blender I/O v4.0.44",
		"version":"2.0"
	},
	"extensionsUsed":[
		"KHR_materials_specular",
		"KHR_materials_ior"
	],
	"scene":0,
	"scenes":[
		{
			"name":"Scene",
			"nodes":[
				0
			]
		}
	],
	"nodes":[
		{
			"mesh":0,
			"name":"Shirt  Right.001",
			"scale":[
				2,
				2,
				2
			]
		}
	],
	"materials":[
		{
			"doubleSided":true,
			"extensions":{
				"KHR_materials_specular":{
					"specularFactor":0
				},
				"KHR_materials_ior":{
					"ior":1
				}
			},
			"name":"shirt",
			"pbrMetallicRoughness":{
				"baseColorFactor":[
					0.5879999995231628,
					0.5879999995231628,
					0.5879999995231628,
					1
				],
				"metallicFactor":0
			}
		},
		{
			"doubleSided":true,
			"extensions":{
				"KHR_materials_specular":{
					"specularFactor":0.8749091029167175
				}
			},
			"name":"Bottons.001",
			"pbrMetallicRoughness":{
				"baseColorFactor":[
					0,
					0,
					0,
					1
				],
				"metallicFactor":0,
				"roughnessFactor":0.3954545557498932
			}
		},
		{
			"doubleSided":true,
			"extensions":{
				"KHR_materials_specular":{
					"specularFactor":0
				}
			},
			"name":"Bottons_Threads",
			"pbrMetallicRoughness":{
				"baseColorFactor":[
					0.05490000173449516,
					0.0706000030040741,
					0.0706000030040741,
					1
				],
				"metallicFactor":0
			}
		}
	],
	"meshes":[
		{
			"name":"Shirt OBJ.002",
			"primitives":[
				{
					"attributes":{
						"POSITION":0,
						"NORMAL":1,
						"TEXCOORD_0":2
					},
					"indices":3,
					"material":0
				},
				{
					"attributes":{
						"POSITION":4,
						"NORMAL":5,
						"TEXCOORD_0":6
					},
					"indices":7,
					"material":1
				},
				{
					"attributes":{
						"POSITION":8,
						"NORMAL":9,
						"TEXCOORD_0":10
					},
					"indices":11,
					"material":2
				}
			]
		}
	],
	"accessors":[
		{
			"bufferView":0,
			"componentType":5126,
			"count":6982,
			"max":[
				0.5534019470214844,
				0.3770935535430908,
				0.1663585603237152
			],
			"min":[
				-0.551273763179779,
				-0.37155598402023315,
				-0.1343645304441452
			],
			"type":"VEC3"
		},
		{
			"bufferView":1,
			"componentType":5126,
			"count":6982,
			"type":"VEC3"
		},
		{
			"bufferView":2,
			"componentType":5126,
			"count":6982,
			"type":"VEC2"
		},
		{
			"bufferView":3,
			"componentType":5123,
			"count":36642,
			"type":"SCALAR"
		},
		{
			"bufferView":4,
			"componentType":5126,
			"count":658,
			"max":[
				0.5325205326080322,
				0.2906758785247803,
				0.16640135645866394
			],
			"min":[
				-0.5275623798370361,
				-0.25735893845558167,
				-0.019693991169333458
			],
			"type":"VEC3"
		},
		{
			"bufferView":5,
			"componentType":5126,
			"count":658,
			"type":"VEC3"
		},
		{
			"bufferView":6,
			"componentType":5126,
			"count":658,
			"type":"VEC2"
		},
		{
			"bufferView":7,
			"componentType":5123,
			"count":2208,
			"type":"SCALAR"
		},
		{
			"bufferView":8,
			"componentType":5126,
			"count":660,
			"max":[
				0.5285174250602722,
				0.2859209179878235,
				0.16432274878025055
			],
			"min":[
				-0.5242426991462708,
				-0.25261959433555603,
				-0.016462016850709915
			],
			"type":"VEC3"
		},
		{
			"bufferView":9,
			"componentType":5126,
			"count":660,
			"type":"VEC3"
		},
		{
			"bufferView":10,
			"componentType":5126,
			"count":660,
			"type":"VEC2"
		},
		{
			"bufferView":11,
			"componentType":5123,
			"count":2970,
			"type":"SCALAR"
		}
	],
	"bufferViews":[
		{
			"buffer":0,
			"byteLength":83784,
			"byteOffset":0,
			"target":34962
		},
		{
			"buffer":0,
			"byteLength":83784,
			"byteOffset":83784,
			"target":34962
		},
		{
			"buffer":0,
			"byteLength":55856,
			"byteOffset":167568,
			"target":34962
		},
		{
			"buffer":0,
			"byteLength":73284,
			"byteOffset":223424,
			"target":34963
		},
		{
			"buffer":0,
			"byteLength":7896,
			"byteOffset":296708,
			"target":34962
		},
		{
			"buffer":0,
			"byteLength":7896,
			"byteOffset":304604,
			"target":34962
		},
		{
			"buffer":0,
			"byteLength":5264,
			"byteOffset":312500,
			"target":34962
		},
		{
			"buffer":0,
			"byteLength":4416,
			"byteOffset":317764,
			"target":34963
		},
		{
			"buffer":0,
			"byteLength":7920,
			"byteOffset":322180,
			"target":34962
		},
		{
			"buffer":0,
			"byteLength":7920,
			"byteOffset":330100,
			"target":34962
		},
		{
			"buffer":0,
			"byteLength":5280,
			"byteOffset":338020,
			"target":34962
		},
		{
			"buffer":0,
			"byteLength":5940,
			"byteOffset":343300,
			"target":34963
		}
	],
	"buffers":[
		{
			"byteLength":349240,
			"uri":"shirt.bin"
		}
	]
}
