{
	"asset":{
		"generator":"Khronos glTF Blender I/O v3.6.27",
		"version":"2.0"
	},
	"extensionsUsed":[
		"KHR_materials_specular",
		"KHR_materials_ior",
		"KHR_texture_transform"
	],
	"extensionsRequired":[
		"KHR_texture_transform"
	],
	"scene":1,
	"scenes":[
		{
			"name":"Scene"
		},
		{
			"name":"Scene.001",
			"nodes":[
				0
			]
		}
	],
	"nodes":[
		{
			"mesh":0,
			"name":"Cube.001",
			"translation":[
				0.500451385974884,
				0.08546723425388336,
				0.4679237902164459
			]
		}
	],
	"materials":[
		{
			"doubleSided":true,
			"name":"Material.003",
			"pbrMetallicRoughness":{
				"baseColorFactor":[
					0.800000011920929,
					0.800000011920929,
					0.800000011920929,
					1
				],
				"roughnessFactor":0.26818180084228516
			}
		},
		{
			"doubleSided":true,
			"name":"Material.002",
			"pbrMetallicRoughness":{
				"baseColorFactor":[
					0.3478143811225891,
					0.3478143811225891,
					0.3478143811225891,
					1
				],
				"roughnessFactor":0.5
			}
		},
		{
			"doubleSided":true,
			"extensions":{
				"KHR_materials_specular":{
					"specularColorFactor":[
						0.8245857069361452,
						0.8245857069361452,
						0.8245857069361452
					]
				},
				"KHR_materials_ior":{
					"ior":1.4500000476837158
				}
			},
			"name":"walletcolor",
			"normalTexture":{
				"extensions":{
					"KHR_texture_transform":{
						"offset":[
							0,
							-0.3400000333786011
						],
						"scale":[
							2.140000104904175,
							1.340000033378601
						]
					}
				},
				"index":0,
				"scale":0.2900000512599945
			},
			"pbrMetallicRoughness":{
				"baseColorFactor":[
					0.0038061875384300947,
					0.13495458662509918,
					0.38659316301345825,
					1
				],
				"metallicFactor":0,
				"metallicRoughnessTexture":{
					"extensions":{
						"KHR_texture_transform":{
							"offset":[
								0,
								-0.3400000333786011
							],
							"scale":[
								2.140000104904175,
								1.340000033378601
							]
						}
					},
					"index":1
				}
			}
		}
	],
	"meshes":[
		{
			"name":"Cube.003",
			"primitives":[
				{
					"attributes":{
						"POSITION":0,
						"NORMAL":1,
						"TEXCOORD_0":2
					},
					"indices":3,
					"material":0
				},
				{
					"attributes":{
						"POSITION":4,
						"NORMAL":5,
						"TEXCOORD_0":6
					},
					"indices":7,
					"material":1
				},
				{
					"attributes":{
						"POSITION":8,
						"NORMAL":9,
						"TEXCOORD_0":10
					},
					"indices":11,
					"material":2
				}
			]
		}
	],
	"textures":[
		{
			"sampler":0,
			"source":0
		},
		{
			"sampler":0,
			"source":1
		}
	],
	"images":[
		{
			"mimeType":"image/jpeg",
			"name":"Leather008_4K-JPG_NormalGL",
			"uri":"Leather008_4K-JPG_NormalGL.jpg"
		},
		{
			"mimeType":"image/png",
			"name":"Leather008_4K-JPG_Roughness",
			"uri":"Leather008_4K-JPG_Roughness.png"
		}
	],
	"accessors":[
		{
			"bufferView":0,
			"componentType":5126,
			"count":224,
			"max":[
				0.40437039732933044,
				0.016217660158872604,
				0.08491996675729752
			],
			"min":[
				-0.40437039732933044,
				-0.054210465401411057,
				-0.08491996675729752
			],
			"type":"VEC3"
		},
		{
			"bufferView":1,
			"componentType":5126,
			"count":224,
			"type":"VEC3"
		},
		{
			"bufferView":2,
			"componentType":5126,
			"count":224,
			"type":"VEC2"
		},
		{
			"bufferView":3,
			"componentType":5123,
			"count":756,
			"type":"SCALAR"
		},
		{
			"bufferView":4,
			"componentType":5126,
			"count":1184,
			"max":[
				0.37322646379470825,
				0.01899869740009308,
				0.032186515629291534
			],
			"min":[
				-0.37106186151504517,
				-0.04842221736907959,
				-0.035625725984573364
			],
			"type":"VEC3"
		},
		{
			"bufferView":5,
			"componentType":5126,
			"count":1184,
			"type":"VEC3"
		},
		{
			"bufferView":6,
			"componentType":5126,
			"count":1184,
			"type":"VEC2"
		},
		{
			"bufferView":7,
			"componentType":5123,
			"count":5760,
			"type":"SCALAR"
		},
		{
			"bufferView":8,
			"componentType":5126,
			"count":1253,
			"max":[
				0.4995485544204712,
				0.03343892842531204,
				0.25999459624290466
			],
			"min":[
				-1.5015687942504883,
				-0.20437341928482056,
				-1.1958421468734741
			],
			"type":"VEC3"
		},
		{
			"bufferView":9,
			"componentType":5126,
			"count":1253,
			"type":"VEC3"
		},
		{
			"bufferView":10,
			"componentType":5126,
			"count":1253,
			"type":"VEC2"
		},
		{
			"bufferView":11,
			"componentType":5123,
			"count":5724,
			"type":"SCALAR"
		}
	],
	"bufferViews":[
		{
			"buffer":0,
			"byteLength":2688,
			"byteOffset":0,
			"target":34962
		},
		{
			"buffer":0,
			"byteLength":2688,
			"byteOffset":2688,
			"target":34962
		},
		{
			"buffer":0,
			"byteLength":1792,
			"byteOffset":5376,
			"target":34962
		},
		{
			"buffer":0,
			"byteLength":1512,
			"byteOffset":7168,
			"target":34963
		},
		{
			"buffer":0,
			"byteLength":14208,
			"byteOffset":8680,
			"target":34962
		},
		{
			"buffer":0,
			"byteLength":14208,
			"byteOffset":22888,
			"target":34962
		},
		{
			"buffer":0,
			"byteLength":9472,
			"byteOffset":37096,
			"target":34962
		},
		{
			"buffer":0,
			"byteLength":11520,
			"byteOffset":46568,
			"target":34963
		},
		{
			"buffer":0,
			"byteLength":15036,
			"byteOffset":58088,
			"target":34962
		},
		{
			"buffer":0,
			"byteLength":15036,
			"byteOffset":73124,
			"target":34962
		},
		{
			"buffer":0,
			"byteLength":10024,
			"byteOffset":88160,
			"target":34962
		},
		{
			"buffer":0,
			"byteLength":11448,
			"byteOffset":98184,
			"target":34963
		}
	],
	"samplers":[
		{
			"magFilter":9729,
			"minFilter":9987
		}
	],
	"buffers":[
		{
			"byteLength":109632,
			"uri":"wallet.bin"
		}
	]
}
